<mxfile host="app.diagrams.net" agent="Mozilla/5.0 (Windows NT 10.0; Win64; x64) AppleWebKit/537.36 (KHTML, like Gecko) Chrome/133.0.0.0 Safari/537.36" version="26.0.14">
  <diagram name="Page-1" id="mVMmmk1mqXCKnl9VmfKv">
    <mxGraphModel dx="1687" dy="2037" grid="1" gridSize="10" guides="1" tooltips="1" connect="1" arrows="1" fold="1" page="1" pageScale="1" pageWidth="827" pageHeight="1169" math="0" shadow="0">
      <root>
        <mxCell id="0" />
        <mxCell id="1" parent="0" />
        <mxCell id="i7gxG2_K_QB8oMBplGRm-1" value="" style="rounded=0;whiteSpace=wrap;html=1;rotation=-90;" vertex="1" parent="1">
          <mxGeometry x="-340" y="540" width="960" height="120" as="geometry" />
        </mxCell>
        <mxCell id="i7gxG2_K_QB8oMBplGRm-3" value="" style="whiteSpace=wrap;html=1;aspect=fixed;" vertex="1" parent="1">
          <mxGeometry x="80" y="880" width="40" height="40" as="geometry" />
        </mxCell>
        <mxCell id="i7gxG2_K_QB8oMBplGRm-4" value="" style="whiteSpace=wrap;html=1;aspect=fixed;" vertex="1" parent="1">
          <mxGeometry x="120" y="880" width="40" height="40" as="geometry" />
        </mxCell>
        <mxCell id="i7gxG2_K_QB8oMBplGRm-5" value="" style="whiteSpace=wrap;html=1;aspect=fixed;" vertex="1" parent="1">
          <mxGeometry x="160" y="880" width="40" height="40" as="geometry" />
        </mxCell>
        <mxCell id="i7gxG2_K_QB8oMBplGRm-6" value="Respawn" style="ellipse;whiteSpace=wrap;html=1;aspect=fixed;" vertex="1" parent="1">
          <mxGeometry x="100" y="980" width="80" height="80" as="geometry" />
        </mxCell>
        <mxCell id="i7gxG2_K_QB8oMBplGRm-7" value="Spikes" style="text;html=1;align=center;verticalAlign=middle;whiteSpace=wrap;rounded=0;" vertex="1" parent="1">
          <mxGeometry x="200" y="885" width="60" height="30" as="geometry" />
        </mxCell>
        <mxCell id="i7gxG2_K_QB8oMBplGRm-8" value="" style="whiteSpace=wrap;html=1;aspect=fixed;" vertex="1" parent="1">
          <mxGeometry x="80" y="680" width="40" height="40" as="geometry" />
        </mxCell>
        <mxCell id="i7gxG2_K_QB8oMBplGRm-9" value="" style="whiteSpace=wrap;html=1;aspect=fixed;" vertex="1" parent="1">
          <mxGeometry x="120" y="680" width="40" height="40" as="geometry" />
        </mxCell>
        <mxCell id="i7gxG2_K_QB8oMBplGRm-10" value="" style="whiteSpace=wrap;html=1;aspect=fixed;" vertex="1" parent="1">
          <mxGeometry x="160" y="680" width="40" height="40" as="geometry" />
        </mxCell>
        <mxCell id="i7gxG2_K_QB8oMBplGRm-11" value="Respawn" style="ellipse;whiteSpace=wrap;html=1;aspect=fixed;" vertex="1" parent="1">
          <mxGeometry x="100" y="780" width="80" height="80" as="geometry" />
        </mxCell>
        <mxCell id="i7gxG2_K_QB8oMBplGRm-12" value="Trapdoors" style="text;html=1;align=center;verticalAlign=middle;whiteSpace=wrap;rounded=0;" vertex="1" parent="1">
          <mxGeometry x="200" y="685" width="60" height="30" as="geometry" />
        </mxCell>
        <mxCell id="i7gxG2_K_QB8oMBplGRm-13" value="Respawn" style="ellipse;whiteSpace=wrap;html=1;aspect=fixed;" vertex="1" parent="1">
          <mxGeometry x="100" y="580" width="80" height="80" as="geometry" />
        </mxCell>
        <mxCell id="i7gxG2_K_QB8oMBplGRm-15" value="" style="rounded=0;whiteSpace=wrap;html=1;" vertex="1" parent="1">
          <mxGeometry x="200" y="480" width="10" height="40" as="geometry" />
        </mxCell>
        <mxCell id="i7gxG2_K_QB8oMBplGRm-17" value="" style="whiteSpace=wrap;html=1;aspect=fixed;" vertex="1" parent="1">
          <mxGeometry x="120" y="480" width="40" height="40" as="geometry" />
        </mxCell>
        <mxCell id="i7gxG2_K_QB8oMBplGRm-18" value="Poison Dart" style="text;html=1;align=center;verticalAlign=middle;whiteSpace=wrap;rounded=0;" vertex="1" parent="1">
          <mxGeometry x="210" y="485" width="60" height="30" as="geometry" />
        </mxCell>
        <mxCell id="i7gxG2_K_QB8oMBplGRm-19" value="Respawn" style="ellipse;whiteSpace=wrap;html=1;aspect=fixed;" vertex="1" parent="1">
          <mxGeometry x="100" y="380" width="80" height="80" as="geometry" />
        </mxCell>
        <mxCell id="i7gxG2_K_QB8oMBplGRm-24" value="" style="rounded=0;whiteSpace=wrap;html=1;" vertex="1" parent="1">
          <mxGeometry x="120" y="280" width="80" height="40" as="geometry" />
        </mxCell>
        <mxCell id="i7gxG2_K_QB8oMBplGRm-25" value="Swinging Axe" style="text;html=1;align=center;verticalAlign=middle;whiteSpace=wrap;rounded=0;" vertex="1" parent="1">
          <mxGeometry x="200" y="285" width="60" height="30" as="geometry" />
        </mxCell>
        <mxCell id="i7gxG2_K_QB8oMBplGRm-26" value="Respawn" style="ellipse;whiteSpace=wrap;html=1;aspect=fixed;" vertex="1" parent="1">
          <mxGeometry x="100" y="180" width="80" height="80" as="geometry" />
        </mxCell>
        <mxCell id="i7gxG2_K_QB8oMBplGRm-27" value="" style="rounded=0;whiteSpace=wrap;html=1;rotation=-90;" vertex="1" parent="1">
          <mxGeometry x="80" y="80" width="40" height="40" as="geometry" />
        </mxCell>
        <mxCell id="i7gxG2_K_QB8oMBplGRm-28" value="" style="rounded=0;whiteSpace=wrap;html=1;rotation=-90;" vertex="1" parent="1">
          <mxGeometry x="20" y="60" width="40" height="80" as="geometry" />
        </mxCell>
        <mxCell id="i7gxG2_K_QB8oMBplGRm-29" value="Moving Walls" style="text;html=1;align=center;verticalAlign=middle;whiteSpace=wrap;rounded=0;" vertex="1" parent="1">
          <mxGeometry x="210" y="85" width="60" height="30" as="geometry" />
        </mxCell>
        <mxCell id="i7gxG2_K_QB8oMBplGRm-30" value="" style="rounded=0;whiteSpace=wrap;html=1;rotation=-90;" vertex="1" parent="1">
          <mxGeometry x="80.32" y="-39.68" width="119.37" height="120" as="geometry" />
        </mxCell>
        <mxCell id="i7gxG2_K_QB8oMBplGRm-32" value="Respawn" style="ellipse;whiteSpace=wrap;html=1;aspect=fixed;" vertex="1" parent="1">
          <mxGeometry x="100" y="-20" width="80" height="80" as="geometry" />
        </mxCell>
      </root>
    </mxGraphModel>
  </diagram>
</mxfile>
